<svg width="25" height="25" fill="none" xmlns="http://www.w3.org/2000/svg"><path d="M23.578 18.27v3.311a2.206 2.206 0 01-2.407 2.208 21.848 21.848 0 01-9.527-3.389 21.526 21.526 0 01-6.624-6.624 21.847 21.847 0 01-3.389-9.57 2.208 2.208 0 012.197-2.408H7.14a2.208 2.208 0 012.208 1.9c.14 1.06.399 2.1.773 3.101a2.208 2.208 0 01-.497 2.33L8.222 10.53a17.664 17.664 0 006.624 6.624l1.402-1.403a2.209 2.209 0 012.33-.496c1 .373 2.041.633 3.101.773a2.208 2.208 0 011.899 2.24z" stroke="#FF8E25" stroke-width="2" stroke-linecap="round" stroke-linejoin="round"/></svg>