<svg width="20" height="20" fill="none" xmlns="http://www.w3.org/2000/svg"><path d="M19.232 14.633v2.71a1.806 1.806 0 01-1.969 1.806 17.875 17.875 0 01-7.795-2.773 17.614 17.614 0 01-5.42-5.42 17.876 17.876 0 01-2.772-7.83 1.806 1.806 0 011.797-1.97h2.71A1.806 1.806 0 017.59 2.71c.114.867.326 1.719.632 2.538a1.807 1.807 0 01-.407 1.906L6.668 8.301a14.452 14.452 0 005.42 5.42l1.147-1.147a1.807 1.807 0 011.906-.407c.82.306 1.67.518 2.538.632a1.807 1.807 0 011.553 1.834z" stroke="#888DA7" stroke-linecap="round" stroke-linejoin="round"/></svg>