<svg width="16" height="16" fill="none" xmlns="http://www.w3.org/2000/svg"><path d="M15.488 11.434v2.112a1.407 1.407 0 01-1.534 1.408 13.93 13.93 0 01-6.075-2.161 13.727 13.727 0 01-4.223-4.224 13.93 13.93 0 01-2.162-6.103A1.408 1.408 0 012.895.932h2.112a1.408 1.408 0 011.408 1.21 8.98 8.98 0 00.493 1.978 1.408 1.408 0 01-.317 1.486l-.894.894a11.263 11.263 0 004.223 4.223l.894-.894a1.408 1.408 0 011.486-.317 9.038 9.038 0 001.978.493 1.408 1.408 0 011.21 1.43z" stroke="#ED1F24" stroke-linecap="round" stroke-linejoin="round"/></svg>